<svg width="36" height="36" viewBox="0 0 36 36" fill="none" xmlns="http://www.w3.org/2000/svg">
<g clip-path="url(#clip0_1701_109)">
<path d="M18.0215 2.93302C21.1472 6.9011 22.8158 11.7944 22.7553 16.8155V18.0141L23.7865 18.6416C25.119 19.4482 26.1127 20.6993 26.5866 22.1669C26.1705 21.8605 25.7352 21.5803 25.2833 21.3278L22.5333 19.7838L22.0391 22.9001C21.9963 23.1755 21.9389 23.4485 21.8672 23.718H14.1615C14.0469 23.3655 13.9538 23.0129 13.8679 22.6463L13.2448 19.8261L10.7097 21.2362C10.2861 21.473 9.87723 21.7344 9.48507 22.0188C9.96824 20.5682 10.9412 19.3242 12.2422 18.4935L13.2234 17.866V16.7521C13.2411 11.7513 14.9297 6.89523 18.0287 2.93302H18.0215ZM18.0287 0C17.868 0.000390307 17.7128 0.0579856 17.5918 0.162162L17.5274 0.218566C13.3978 4.76564 11.1047 10.6454 11.0821 16.745C9.32967 17.8643 8.03251 19.5543 7.41726 21.5197C6.80202 23.485 6.90783 25.6007 7.71619 27.4971C8.56776 25.6455 9.99131 24.1058 11.7839 23.0975C11.9637 23.8642 12.2031 24.6161 12.5 25.3467C12.5377 25.4871 12.6212 25.6114 12.7376 25.7006C12.8541 25.7898 12.9971 25.8388 13.1446 25.8402H23.0847C23.2852 25.8402 23.4857 25.6498 23.586 25.3537C23.8758 24.6592 24.0778 23.9322 24.1875 23.1892C25.9836 24.1932 27.4083 25.7342 28.2553 27.5887C29.1124 25.7017 29.2451 23.5727 28.6287 21.5967C28.0124 19.6206 26.6888 17.9319 24.9037 16.8437C24.9745 10.7082 22.6935 4.77179 18.5157 0.218566C18.4535 0.150085 18.3773 0.0952397 18.2922 0.0575871C18.2071 0.0199344 18.1149 0.000314749 18.0215 0L18.0287 0Z" fill="#4EA8DE"/>
<path d="M18.0216 16.1598C17.4715 16.1598 16.9338 15.9995 16.4761 15.699C16.0185 15.3986 15.6614 14.9715 15.4499 14.4716C15.2385 13.9716 15.1821 13.4213 15.2878 12.8898C15.3936 12.3584 15.6568 11.8697 16.0442 11.4853C16.4317 11.1009 16.9261 10.838 17.465 10.7298C18.004 10.6216 18.5634 10.6729 19.0728 10.8773C19.5822 11.0816 20.0188 11.4298 20.3275 11.8781C20.6361 12.3263 20.8031 12.8545 20.8074 13.396V13.396C20.8159 13.7469 20.7542 14.0961 20.6256 14.4235C20.4971 14.751 20.3043 15.0503 20.0582 15.3043C19.8121 15.5583 19.5176 15.7622 19.1915 15.9041C18.8654 16.0461 18.5141 16.1234 18.1576 16.1316C18.1126 16.1387 18.0666 16.1387 18.0216 16.1316V16.1598Z" fill="#4EA8DE"/>
<path d="M21.8959 27.5958C21.7167 27.5901 21.5382 27.6198 21.3708 27.683C21.2034 27.7462 21.0505 27.8416 20.9211 27.9638C20.7917 28.086 20.6884 28.2323 20.6172 28.3943C20.546 28.5563 20.5084 28.7307 20.5066 28.9072V33.067C20.5066 33.4297 20.653 33.7776 20.9135 34.0342C21.1741 34.2907 21.5274 34.4348 21.8959 34.4348C22.2644 34.4348 22.6178 34.2907 22.8783 34.0342C23.1389 33.7776 23.2852 33.4297 23.2852 33.067V28.9636C23.291 28.7877 23.2611 28.6126 23.1973 28.4482C23.1336 28.2839 23.0372 28.1337 22.9139 28.0064C22.7906 27.879 22.6428 27.7772 22.4791 27.7067C22.3154 27.6362 22.139 27.5985 21.9604 27.5958H21.8959Z" fill="#5E60CE"/>
<path d="M14.1615 27.5958C13.9793 27.5863 13.797 27.613 13.6255 27.6743C13.4539 27.7356 13.2967 27.8302 13.163 27.9526C13.0294 28.0749 12.9221 28.2225 12.8476 28.3865C12.7731 28.5505 12.7328 28.7275 12.7292 28.9072V33.067C12.7292 33.4297 12.8756 33.7777 13.1362 34.0342C13.3967 34.2907 13.7501 34.4348 14.1186 34.4348C14.487 34.4348 14.8404 34.2907 15.101 34.0342C15.3615 33.7777 15.5079 33.4297 15.5079 33.067V28.9636C15.5136 28.7877 15.4837 28.6126 15.42 28.4482C15.3562 28.2839 15.2599 28.1337 15.1366 28.0064C15.0133 27.879 14.8654 27.7772 14.7017 27.7067C14.538 27.6362 14.3617 27.5985 14.183 27.5958H14.1615Z" fill="#5E60CE"/>
<path d="M17.9213 27.5958C17.7426 27.592 17.5649 27.623 17.3984 27.6869C17.2318 27.7507 17.0797 27.8463 16.9507 27.9681C16.8217 28.0899 16.7183 28.2355 16.6464 28.3966C16.5746 28.5577 16.5357 28.7312 16.532 28.9072V34.6392C16.532 35.002 16.6784 35.3499 16.9389 35.6064C17.1995 35.8629 17.5528 36.007 17.9213 36.007C18.2898 36.007 18.6432 35.8629 18.9037 35.6064C19.1643 35.3499 19.3106 35.002 19.3106 34.6392V28.9988C19.3164 28.823 19.2865 28.6478 19.2227 28.4835C19.159 28.3191 19.0626 28.1689 18.9393 28.0416C18.816 27.9143 18.6682 27.8124 18.5045 27.7419C18.3408 27.6714 18.1644 27.6337 17.9858 27.631L17.9213 27.5958Z" fill="#5E60CE"/>
</g>
<defs>
<clipPath id="clip0_1701_109">
<rect width="22" height="36" fill="white" transform="translate(7)"/>
</clipPath>
</defs>
</svg>
